# xmcd
#
# Track frame offsets:
#	225
#	12861
#	26818
#	37168
#	51969
#	64083
#	77831
#	91145
#	103145
#	116907
#	130488
#	144211
#	157200
#	170552
#
# Disc length: 2472 seconds
#
# Revision: 1
# Processed by: cddbd v1.5.2PL0 Copyright (c) Steve Scherf et al.
# Submitted via: audiograbber 1.83.01
#
DISCID=c809a50e
DTITLE=Verschiedene - Grand Prix der Volksmusik
DYEAR=1996
DGENRE=Volksmusik
TTITLE0=Liebe ist wie ein Schmetterling
TTITLE1=La Luna Blu
TTITLE2=Irgendwer hat irgentwem
TTITLE3=Und in Val Campano ist Frühling
TTITLE4=Der schönste Mann der blauen Berge
TTITLE5=Der erste Blick in die Welt
TTITLE6=Madonna del Sasso
TTITLE7=Haamweh
TTITLE8=Monte Cristallo
TTITLE9=Der Schä#fer von Monte Castello
TTITLE10=Du bist das Licht
TTITLE11=Mutter Gottes von Altötting
TTITLE12=Montagna Blu
TTITLE13=Ich will Dich nicht verlieren
EXTD=
EXTT0=
EXTT1=
EXTT2=
EXTT3=
EXTT4=
EXTT5=
EXTT6=
EXTT7=
EXTT8=
EXTT9=
EXTT10=
EXTT11=
EXTT12=
EXTT13=
PLAYORDER=
